<svg width="32" height="32" viewBox="0 0 32 32" fill="none" xmlns="http://www.w3.org/2000/svg">
<path d="M6.43312 16.0334L11.5998 21.2001C11.8442 21.4446 11.9665 21.7557 11.9665 22.1334C11.9665 22.5112 11.8442 22.8223 11.5998 23.0668C11.3553 23.3112 11.0442 23.4334 10.6665 23.4334C10.2887 23.4334 9.97757 23.3112 9.73312 23.0668L3.59979 16.9334C3.46646 16.8001 3.37179 16.6557 3.31579 16.5001C3.25979 16.3446 3.23268 16.1779 3.23446 16.0001C3.23623 15.8223 3.26423 15.6557 3.31846 15.5001C3.37268 15.3446 3.4669 15.2001 3.60112 15.0668L9.73446 8.93345C10.0011 8.66678 10.318 8.53345 10.6851 8.53345C11.0522 8.53345 11.3687 8.66678 11.6345 8.93345C11.9002 9.20011 12.0336 9.517 12.0345 9.88411C12.0353 10.2512 11.902 10.5677 11.6345 10.8334L6.43312 16.0334ZM25.5665 15.9668L20.3998 10.8001C20.1553 10.5557 20.0331 10.2446 20.0331 9.86678C20.0331 9.489 20.1553 9.17789 20.3998 8.93345C20.6442 8.689 20.9553 8.56678 21.3331 8.56678C21.7109 8.56678 22.022 8.689 22.2665 8.93345L28.3998 15.0668C28.5331 15.2001 28.6278 15.3446 28.6838 15.5001C28.7398 15.6557 28.7673 15.8223 28.7665 16.0001C28.7656 16.1779 28.738 16.3446 28.6838 16.5001C28.6296 16.6557 28.5349 16.8001 28.3998 16.9334L22.2665 23.0668C21.9998 23.3334 21.6887 23.4614 21.3331 23.4508C20.9776 23.4401 20.6665 23.301 20.3998 23.0334C20.1331 22.7659 19.9998 22.4494 19.9998 22.0841C19.9998 21.7188 20.1331 21.4019 20.3998 21.1334L25.5665 15.9668Z" fill="#4F4B5C"/>
</svg>
