<svg width="30" height="30" viewBox="0 0 30 30" fill="none" xmlns="http://www.w3.org/2000/svg">
<path d="M1.6665 15.0001C1.6665 18.5363 3.07126 21.9277 5.57175 24.4282C8.07223 26.9287 11.4636 28.3334 14.9998 28.3334C18.5361 28.3334 21.9274 26.9287 24.4279 24.4282C26.9284 21.9277 28.3332 18.5363 28.3332 15.0001C28.3332 11.4639 26.9284 8.07248 24.4279 5.57199C21.9274 3.07151 18.5361 1.66675 14.9998 1.66675C11.4636 1.66675 8.07223 3.07151 5.57175 5.57199C3.07126 8.07248 1.6665 11.4639 1.6665 15.0001Z" stroke="#4F4B5C" stroke-width="2" stroke-linejoin="round"/>
<path d="M9.28564 15.0001C9.28564 11.4639 9.88768 8.07248 10.9593 5.57199C12.031 3.07151 13.4844 1.66675 14.9999 1.66675C16.5155 1.66675 17.9689 3.07151 19.0405 5.57199C20.1122 8.07248 20.7142 11.4639 20.7142 15.0001C20.7142 18.5363 20.1122 21.9277 19.0405 24.4282C17.9689 26.9287 16.5155 28.3334 14.9999 28.3334C13.4844 28.3334 12.031 26.9287 10.9593 24.4282C9.88768 21.9277 9.28564 18.5363 9.28564 15.0001Z" stroke="#4F4B5C" stroke-width="2" stroke-linejoin="round"/>
<path d="M2.61865 19.4446H27.3806M2.61865 10.5557H27.3806" stroke="#4F4B5C" stroke-width="2" stroke-linecap="round"/>
</svg>
