<svg width="65" height="16" viewBox="0 0 65 16" fill="none" xmlns="http://www.w3.org/2000/svg">
<path d="M4.41 8.882H4.32V14.75H0V1.25H4.32V6.758H4.41C4.422 6.542 4.446 6.35 4.482 6.182C4.518 6.002 4.566 5.846 4.626 5.714L6.732 1.25H11.412L8.172 7.874L11.52 14.75H6.84L4.626 9.908C4.566 9.776 4.518 9.626 4.482 9.458C4.446 9.29 4.422 9.098 4.41 8.882Z" fill="#2E293D"/>
<path d="M13.2465 8.018C13.2465 6.782 13.3485 5.72 13.5525 4.832C13.7685 3.932 14.1225 3.194 14.6145 2.618C15.1185 2.042 15.7785 1.616 16.5945 1.34C17.4105 1.064 18.4185 0.926003 19.6185 0.926003C20.8305 0.926003 21.8385 1.064 22.6425 1.34C23.4585 1.616 24.1125 2.042 24.6045 2.618C25.1085 3.194 25.4625 3.932 25.6665 4.832C25.8825 5.72 25.9905 6.782 25.9905 8.018C25.9905 9.194 25.8945 10.226 25.7025 11.114C25.5105 11.99 25.1685 12.722 24.6765 13.31C24.1965 13.898 23.5425 14.342 22.7145 14.642C21.8985 14.93 20.8665 15.074 19.6185 15.074C18.3705 15.074 17.3325 14.93 16.5045 14.642C15.6885 14.342 15.0345 13.898 14.5425 13.31C14.0625 12.722 13.7265 11.99 13.5345 11.114C13.3425 10.226 13.2465 9.194 13.2465 8.018ZM17.8905 5.768V11.384H19.6905C20.2905 11.384 20.7165 11.318 20.9685 11.186C21.2325 11.042 21.3645 10.724 21.3645 10.232V4.616H19.5465C18.9705 4.616 18.5505 4.688 18.2865 4.832C18.0225 4.964 17.8905 5.276 17.8905 5.768Z" fill="#2E293D"/>
<path d="M28.0399 14.516L28.6519 10.952C29.9719 11.276 31.1659 11.438 32.2339 11.438C32.7739 11.438 33.2479 11.432 33.6559 11.42C34.0759 11.396 34.4479 11.36 34.7719 11.312V10.232L32.8279 10.07C31.9519 9.986 31.2199 9.842 30.6319 9.638C30.0439 9.434 29.5699 9.158 29.2099 8.81C28.8619 8.45 28.6099 8.024 28.4539 7.532C28.3099 7.028 28.2379 6.44 28.2379 5.768C28.2379 4.844 28.3339 4.076 28.5259 3.464C28.7179 2.84 29.0239 2.342 29.4439 1.97C29.8639 1.586 30.4039 1.316 31.0639 1.16C31.7359 1.004 32.5519 0.926003 33.5119 0.926003C35.4199 0.926003 37.1479 1.106 38.6959 1.466L38.1559 4.922C36.8119 4.706 35.7379 4.598 34.9339 4.598C34.1299 4.598 33.4459 4.634 32.8819 4.706V5.768L34.4299 5.912C35.3779 6.008 36.1699 6.17 36.8059 6.398C37.4419 6.614 37.9519 6.902 38.3359 7.262C38.7319 7.622 39.0079 8.048 39.1639 8.54C39.3319 9.032 39.4159 9.596 39.4159 10.232C39.4159 11.144 39.2959 11.912 39.0559 12.536C38.8159 13.16 38.5279 13.634 38.1919 13.958C37.9159 14.222 37.5739 14.432 37.1659 14.588C36.7579 14.732 36.3259 14.84 35.8699 14.912C35.4139 14.984 34.9519 15.026 34.4839 15.038C34.0279 15.062 33.6139 15.074 33.2419 15.074C32.3059 15.074 31.4059 15.026 30.5419 14.93C29.6779 14.834 28.8439 14.696 28.0399 14.516Z" fill="#2E293D"/>
<path d="M45.8308 12.608L45.3448 14.75H40.7908L44.2828 1.25H50.9608L54.4528 14.75H49.8988L49.3948 12.608H45.8308ZM47.7388 5.39H47.5048L46.6228 9.17H48.6028L47.7388 5.39Z" fill="#2E293D"/>
<path d="M65.0088 11.294V14.75H56.3688V1.25H60.6888V11.294H65.0088Z" fill="#2E293D"/>
</svg>
