<svg width="30" height="28" viewBox="0 0 30 28" fill="none" xmlns="http://www.w3.org/2000/svg">
<path d="M1.6665 21.6667C1.6665 19.1521 1.6665 17.8961 2.44784 17.1147C3.22917 16.3334 4.48517 16.3334 6.99984 16.3334H22.9998C25.5145 16.3334 26.7705 16.3334 27.5518 17.1147C28.3332 17.8961 28.3332 19.1521 28.3332 21.6667C28.3332 24.1814 28.3332 25.4374 27.5518 26.2187C26.7705 27.0001 25.5145 27.0001 22.9998 27.0001H6.99984C4.48517 27.0001 3.22917 27.0001 2.44784 26.2187C1.6665 25.4374 1.6665 24.1814 1.6665 21.6667ZM1.6665 7.00008C1.6665 4.48541 1.6665 3.22941 2.44784 2.44808C3.22917 1.66675 4.48517 1.66675 6.99984 1.66675H22.9998C25.5145 1.66675 26.7705 1.66675 27.5518 2.44808C28.3332 3.22941 28.3332 4.48541 28.3332 7.00008C28.3332 9.51475 28.3332 10.7707 27.5518 11.5521C26.7705 12.3334 25.5145 12.3334 22.9998 12.3334H6.99984C4.48517 12.3334 3.22917 12.3334 2.44784 11.5521C1.6665 10.7707 1.6665 9.51475 1.6665 7.00008Z" stroke="#4F4B5C" stroke-width="2"/>
</svg>
